<?xml version="1.0" encoding="UTF-8"?><svg id="Layer_2" xmlns="http://www.w3.org/2000/svg" viewBox="0 0 1007.5 234"><defs><style>.cls-1{fill:#010101;}.cls-2{fill:#020202;}.cls-3{fill:#fbbc7c;}.cls-4{fill:#fefefe;}.cls-5{fill:#8ab586;}.cls-6{fill:#448794;}</style></defs><g id="Layer_1-2"><path class="cls-4" d="M611.99,233.95c-203.23,0-406.46,0-609.69,.05-1.87,0-2.3-.42-2.3-2.3C.05,155.23,.05,78.77,0,2.3,0,.42,.42,0,2.3,0,255.36,.05,508.42,.05,761.47,.05c.06,.99,.18,1.98,.18,2.97,0,57.97,.02,115.95-.04,173.92,0,2.06,.47,2.64,2.56,2.61,8.33-.13,16.66-.1,25-.01,1.61,.02,2.11-.38,2.09-2.05-.09-8.41-.08-16.83-.03-25.24,.08-13.83-.44-27.66,.23-41.47,.81-16.62,12.81-27.65,29.44-27.47,9.73,.11,17.19,4.04,21.53,13.04,2.28,4.73,3.08,9.81,3.08,15.02,.03,21.91,.06,43.81,0,65.72,0,1.95,.48,2.49,2.45,2.46,8.25-.12,16.5-.11,24.75,0,1.94,.03,2.45-.47,2.44-2.43-.07-23.41-.05-46.81-.04-70.22,0-5.76-.32-11.49-1.67-17.11-3.04-12.61-9.09-23.29-21.35-28.78-15.16-6.79-30.54-6.41-45.55,.92-6.04,2.95-10.89,7.39-15.07,13.43V.05C862.71,.05,933.96,.06,1005.2,0c1.87,0,2.3,.42,2.3,2.3-.07,31.57-.05,63.14-.05,94.71-.69-.19-.45-.79-.52-1.23-2.61-16.26-10.51-28.87-26.29-34.84-19.16-7.25-38.43-6.48-56.85,2.69-13.56,6.74-20.9,18.07-21.81,33.37-.1,1.73,.31,2.27,2.12,2.25,6.99-.11,13.99-.07,20.99-.02,1.32,0,2.12-.09,2.24-1.76,.55-8.32,5.38-13.37,12.94-15.95,7.83-2.67,15.87-2.86,23.87-.86,6.64,1.66,11.41,5.62,13.52,12.35,1.06,3.37,1.26,6.85,1.31,10.36,.02,1.27-.56,1.5-1.63,1.58-8.72,.66-17.43,1.37-26.14,2.06-7.54,.6-15.11,1.03-22.47,3.01-17.39,4.66-31.21,16.1-29.74,38.41,.95,14.3,7.91,24.73,21.07,30.47,11.34,4.94,23.19,4.8,34.98,1.71,8.63-2.26,16.23-6.39,21.74-13.69,.97-1.28,1.74-2.7,2.92-4.55,.64,5.31,1.27,10.05,1.77,14.81,.17,1.64,.52,2.42,2.5,2.38,7.83-.16,15.66-.07,23.49-.08,0,17.41-.03,34.82,.05,52.23,0,1.88-.42,2.3-2.3,2.3-121.07-.05-242.14-.05-363.22-.05-.08-.57-.23-1.13-.23-1.7-.01-22.07-.01-44.14,0-66.22,0-.5-.31-1.16,.39-1.52,6.73,7.83,10.76,10.95,18.14,13.92,7.03,2.83,14.34,4.08,21.92,4.17,23.56,.26,41.7-11.32,50.44-32.94,7.36-18.22,8.15-37.05,2.14-55.72-5.82-18.09-17.84-30.51-36.59-35.61-8.06-2.19-16.31-2.58-24.52-1.24-13.28,2.16-24.5,7.79-31.59,19.88-.1,.17-.32,.26-.64,.51-.55-5.23-1.12-10.28-1.57-15.33-.14-1.62-.65-2.2-2.39-2.17-7.5,.11-15,.14-22.49-.01-2.29-.05-2.85,.57-2.84,2.84,.07,56.05,.05,112.11,.05,168.16,0,.99-.12,1.98-.18,2.97ZM62.99,77.47c-6.83,.02-13.66-.21-20.48,.1-15.42,.68-26.79,8.1-33.36,21.97-7.91,16.69-2.73,36.53,11.35,47.11,4.58,3.44,9.59,6.43,15.34,6.7,9.05,.42,18.14,.08,27.22,.06l.48,.18c.26,8.04-.42,16.09,.48,24.14,1.77,15.89,13.25,30.12,29.22,33.29,15.95,3.17,29.52-.85,39.75-13.88,4.33-5.52,6.96-11.73,6.63-19.11-.36-8.14-.08-16.3-.08-24.45,7.83-.03,15.65-.05,23.48-.09,1.66,0,3.31,0,4.97-.35,20.47-4.46,33.09-24.61,29.01-45.57-3.59-18.42-21.39-30.96-37.22-30.1-5.98,.33-11.99-.04-17.98,.1-1.94,.04-2.33-.56-2.3-2.38,.1-7.74-.02-15.49,.07-23.23,.04-3.15-.55-6.11-1.76-8.98-3.57-8.51-9.24-15.05-17.47-19.45-22.72-12.17-51.05,1.15-55.93,26.41-.88,4.55-1.61,9.11-1.41,13.8,.19,4.57,.01,9.15,0,13.73Zm245.31,85.16c.62,5.15,1.26,9.92,1.73,14.7,.16,1.62,.62,2.24,2.4,2.21,7.16-.11,14.33-.14,21.49,0,2.08,.04,2.4-.67,2.39-2.52-.06-22.82-.04-45.63-.04-68.45,0-4.25-.11-8.49-.77-12.7-2.77-17.66-11.97-30.17-29.17-36.17-7.06-2.46-14.4-3.28-21.86-3.28-12.62,0-24.68,2.21-35.5,9.07-11.58,7.34-17.7,17.93-18.4,31.64-.07,1.33-.03,2.13,1.74,2.1,7.25-.1,14.49-.07,21.74-.02,1.26,0,1.73-.34,1.82-1.64,.59-8.93,5.95-14,14.02-16.45,7.37-2.24,14.94-2.43,22.45-.58,7.7,1.89,12.71,6.6,14.43,14.49,.59,2.69,.71,5.43,.77,8.19,.03,1.39-.58,1.63-1.76,1.72-10.96,.83-21.91,1.7-32.87,2.58-9.42,.76-18.55,2.54-27.1,6.9-24.49,12.5-22.26,45.35-6.96,58.34,8.39,7.13,18.15,9.84,28.86,9.78,16.54-.1,30.95-4.72,40.6-19.93Zm234.96-35.88v-.22c14.24,0,28.49-.04,42.73,.05,1.93,.01,2.33-.54,2.3-2.36-.09-7.16,.04-14.32-1.28-21.4-3.38-18.19-12.67-32.15-29.45-40.56-9.76-4.89-20.29-6.3-31.07-5.73-21.94,1.16-38.53,11.15-48.88,30.66-7.28,13.7-8.74,28.53-6.57,43.68,2.87,20.02,12.72,35.79,30.96,44.98,20.09,10.11,40.76,9.2,60.83-.38,13.62-6.5,21.86-17.77,25.45-32.44,.44-1.8,.1-2.29-1.77-2.27-7.75,.09-15.49,.07-23.24,0-1.36-.01-2.01,.33-2.5,1.71-2.11,5.87-6.26,9.93-11.88,12.48-7.57,3.43-15.54,4.06-23.69,3.07-11.38-1.38-19.43-7.19-23.76-17.93-1.41-3.49-2.12-7.15-2.81-10.83-.36-1.91-.01-2.58,2.14-2.57,14.16,.1,28.32,.05,42.48,.05Zm-173.08,16.43c-3.92,0-7.84,.12-11.75-.05-2-.08-2.52,.51-2.39,2.48,1,14.54,8.23,25.17,21.2,31.19,18.17,8.42,36.92,8.05,55.19,.27,17.31-7.37,25.15-23.31,21.54-41.79-2.1-10.75-9.39-16.83-18.97-20.75-7.19-2.94-14.88-4.1-22.35-6.04-6.09-1.59-12.45-2.29-18.11-5.34-4.43-2.38-7.24-5.83-6.99-11.14,.26-5.42,2.96-9.24,7.83-11.52,4.69-2.19,9.68-2.5,14.67-1.71,8.77,1.39,12.88,5.84,14.06,14.88,.16,1.25,.65,1.46,1.73,1.46,8.33-.03,16.66-.03,25,0,1.22,0,1.51-.35,1.44-1.58-.7-12.04-5.7-21.75-15.62-28.74-7.78-5.48-16.62-7.87-26.02-8.26-12.27-.52-24.14,1.11-34.71,7.92-12.9,8.31-17.73,20.41-15.88,35.39,1.66,13.41,10.09,20.96,22.1,25.4,5.79,2.14,11.86,3.23,17.81,4.73,6.04,1.52,12.2,2.56,18.13,4.52,4.19,1.38,7.29,3.98,8.42,8.43,1.61,6.36-1.6,12.34-8.13,15.01-5.95,2.43-12.2,2.72-18.43,1.7-9.59-1.56-13.66-5.6-15.69-15.1-.27-1.25-.81-1.38-1.84-1.37-4.08,.04-8.17,.02-12.25,.01Z"/><path class="cls-2" d="M611.99,233.95c.06-.99,.18-1.98,.18-2.97,0-56.05,.02-112.11-.05-168.16,0-2.28,.56-2.89,2.84-2.84,7.5,.15,15,.12,22.49,.01,1.74-.03,2.25,.56,2.39,2.17,.45,5.05,1.02,10.1,1.57,15.33,.33-.25,.55-.35,.64-.51,7.09-12.1,18.31-17.73,31.59-19.88,8.22-1.33,16.46-.95,24.52,1.24,18.75,5.1,30.77,17.53,36.59,35.61,6.01,18.67,5.22,37.49-2.14,55.72-8.74,21.62-26.88,33.2-50.44,32.94-7.57-.08-14.89-1.33-21.92-4.17-7.37-2.97-11.4-6.09-18.14-13.92-.7,.36-.39,1.02-.39,1.52-.02,22.07-.02,44.14,0,66.22,0,.57,.15,1.13,.23,1.7h-30Zm96.48-114.11c0-1.66,.13-3.34-.02-4.99-1.72-19.04-14-31.38-32.35-31.56-15.88-.16-28.09,8.57-32.41,23.64-1.81,6.31-2.04,12.75-1.28,19.29,2.04,17.49,14.54,29.26,32.03,29.97,14.63,.59,26.34-6.84,31.4-19.98,2.03-5.26,2.87-10.75,2.63-16.38Z"/><path class="cls-2" d="M791.47,.05V75.35c4.18-6.03,9.03-10.48,15.07-13.43,15.02-7.32,30.39-7.7,45.55-.92,12.26,5.49,18.31,16.17,21.35,28.78,1.35,5.62,1.68,11.35,1.67,17.11-.01,23.41-.03,46.81,.04,70.22,0,1.96-.49,2.46-2.44,2.43-8.25-.11-16.5-.12-24.75,0-1.97,.03-2.45-.51-2.45-2.46,.06-21.91,.02-43.81,0-65.72,0-5.21-.8-10.29-3.08-15.02-4.34-9-11.8-12.93-21.53-13.04-16.63-.18-28.63,10.85-29.44,27.47-.67,13.81-.15,27.65-.23,41.47-.05,8.41-.06,16.83,.03,25.24,.02,1.67-.48,2.06-2.09,2.05-8.33-.08-16.67-.11-25,.01-2.1,.03-2.57-.54-2.56-2.61,.06-57.97,.05-115.95,.04-173.92,0-.99-.12-1.98-.18-2.97h30Z"/><path class="cls-1" d="M1007.45,179.48c-7.83,0-15.66-.08-23.49,.08-1.98,.04-2.33-.73-2.5-2.38-.49-4.76-1.12-9.5-1.77-14.81-1.18,1.85-1.96,3.27-2.92,4.55-5.51,7.3-13.11,11.43-21.74,13.69-11.8,3.09-23.65,3.23-34.98-1.71-13.17-5.74-20.13-16.17-21.07-30.47-1.48-22.31,12.34-33.75,29.74-38.41,7.36-1.97,14.93-2.41,22.47-3.01,8.71-.7,17.43-1.4,26.14-2.06,1.07-.08,1.65-.31,1.63-1.58-.04-3.51-.25-6.98-1.31-10.36-2.11-6.73-6.88-10.7-13.52-12.35-8-2-16.04-1.81-23.87,.86-7.56,2.58-12.39,7.63-12.94,15.95-.11,1.67-.91,1.77-2.24,1.76-7-.05-13.99-.08-20.99,.02-1.81,.03-2.22-.51-2.12-2.25,.9-15.3,8.25-26.63,21.81-33.37,18.42-9.16,37.69-9.94,56.85-2.69,15.78,5.97,23.68,18.58,26.29,34.84,.07,.44-.17,1.04,.52,1.23v82.47Zm-28.35-48.57c0-1.25-.14-2.52,.03-3.74,.27-1.97-.51-2.34-2.34-2.18-8.46,.76-16.94,1.26-25.38,2.12-5.29,.54-10.55,1.54-15.21,4.37-5.55,3.37-7.84,8.39-7.21,14.78,.59,6.05,3.7,10.38,9.46,12.26,10.35,3.39,20.44,2.62,29.6-3.53,8.45-5.68,11.1-14.34,11.05-24.08Z"/><path class="cls-6" d="M63.54,153.59l-.48-.18c-.04-8.19-.08-16.37-.12-24.56,.02-8.93,.03-17.87,.05-26.8,0-8.19,0-16.39,0-24.58,.02-4.58,.2-9.16,0-13.73-.2-4.69,.53-9.25,1.41-13.8,4.88-25.26,33.22-38.57,55.93-26.41,8.22,4.4,13.9,10.95,17.47,19.45,1.21,2.88,1.8,5.83,1.76,8.98-.09,7.74,.03,15.49-.07,23.23-.02,1.81,.37,2.42,2.3,2.38,5.99-.14,12.01,.22,17.98-.1,15.82-.86,33.63,11.68,37.22,30.1,4.08,20.96-8.54,41.1-29.01,45.57-1.65,.36-3.31,.34-4.97,.35-7.83,.04-15.65,.06-23.48,.09-7.84,0-15.67,0-23.51,0-9.33,0-18.66,0-27.98,0l-24.5,.02Zm52.48-52.1l.03,.03-.1-23.53c.02-7.07,.25-14.14,.02-21.2-.28-8.73-7.38-14.34-15.93-12.93-8.46,1.39-11.92,7.55-12.42,15.45-.39,6.21-.03,12.46,0,18.7v23.51c-.03,8.65-.04,17.29-.1,25.94,0,1.19,.37,1.57,1.56,1.56,8.98-.07,17.96-.07,26.95-.1,8.01,.08,16.02,.24,24.03-.08,6.91,.07,13.82,.1,20.73,.2,7.08,.1,12.89-4.72,13.34-11.14,.6-8.53-4.14-15.06-11.65-15.96-7.47-.89-14.96-.31-22.45-.35-8-.03-16.01-.07-24.01-.1Z"/><path class="cls-2" d="M308.3,162.63c-9.65,15.21-24.05,19.83-40.6,19.93-10.71,.06-20.47-2.65-28.86-9.78-15.3-12.99-17.53-45.84,6.96-58.34,8.55-4.36,17.68-6.14,27.1-6.9,10.95-.88,21.91-1.75,32.87-2.58,1.18-.09,1.79-.33,1.76-1.72-.06-2.75-.18-5.5-.77-8.19-1.72-7.89-6.73-12.6-14.43-14.49-7.51-1.84-15.08-1.65-22.45,.58-8.07,2.45-13.43,7.52-14.02,16.45-.09,1.3-.56,1.65-1.82,1.64-7.25-.06-14.49-.09-21.74,.02-1.77,.03-1.81-.77-1.74-2.1,.71-13.71,6.83-24.3,18.4-31.64,10.82-6.86,22.88-9.07,35.5-9.07,7.46,0,14.8,.82,21.86,3.28,17.2,6,26.4,18.51,29.17,36.17,.66,4.21,.77,8.45,.77,12.7,0,22.82-.02,45.63,.04,68.45,0,1.85-.31,2.56-2.39,2.52-7.16-.15-14.33-.12-21.49,0-1.77,.03-2.24-.59-2.4-2.21-.48-4.78-1.11-9.54-1.73-14.7Zm-.64-31.61c0-1.25-.14-2.52,.03-3.74,.29-2.08-.59-2.45-2.47-2.28-8.37,.75-16.77,1.26-25.13,2.1-5.29,.54-10.55,1.52-15.23,4.32-5.67,3.39-7.97,8.49-7.3,14.97,.63,6.05,3.81,10.32,9.57,12.18,10.27,3.31,20.29,2.55,29.38-3.51,8.47-5.65,11.17-14.29,11.15-24.03Z"/><path class="cls-1" d="M543.26,126.75c-14.16,0-28.32,.05-42.48-.05-2.15-.02-2.5,.66-2.14,2.57,.69,3.68,1.41,7.34,2.81,10.83,4.33,10.74,12.38,16.55,23.76,17.93,8.15,.99,16.13,.36,23.69-3.07,5.61-2.55,9.77-6.61,11.88-12.48,.5-1.38,1.14-1.72,2.5-1.71,7.75,.06,15.49,.08,23.24,0,1.87-.02,2.21,.46,1.77,2.27-3.6,14.67-11.83,25.94-25.45,32.44-20.07,9.58-40.75,10.49-60.83,.38-18.25-9.19-28.09-24.96-30.96-44.98-2.17-15.14-.71-29.97,6.57-43.68,10.35-19.5,26.95-29.49,48.88-30.66,10.78-.57,21.31,.84,31.07,5.73,16.78,8.41,26.06,22.37,29.45,40.56,1.32,7.09,1.19,14.25,1.28,21.4,.02,1.82-.37,2.37-2.3,2.36-14.24-.09-28.49-.05-42.73-.05v.22Zm-14.49-18.81c9.41,0,18.82-.05,28.22,.04,1.72,.02,2.09-.53,1.96-2.12-.49-5.85-2.11-11.26-6.02-15.79-6.6-7.66-15.35-9.85-24.96-9.42-11.34,.51-20.4,4.96-25.53,15.69-1.44,3.01-2.32,6.19-3.15,9.42-.48,1.87-.07,2.22,1.75,2.21,9.24-.08,18.48-.04,27.72-.04Z"/><path class="cls-1" d="M370.17,143.18c4.08,0,8.17,.02,12.25-.01,1.03,0,1.57,.12,1.84,1.37,2.03,9.5,6.1,13.54,15.69,15.1,6.23,1.02,12.48,.73,18.43-1.7,6.53-2.67,9.74-8.65,8.13-15.01-1.13-4.45-4.23-7.04-8.42-8.43-5.93-1.96-12.09-3-18.13-4.52-5.96-1.5-12.02-2.59-17.81-4.73-12.01-4.44-20.44-11.99-22.1-25.4-1.86-14.99,2.98-27.09,15.88-35.39,10.56-6.8,22.43-8.43,34.71-7.92,9.4,.4,18.24,2.78,26.02,8.26,9.91,6.99,14.92,16.69,15.62,28.74,.07,1.23-.22,1.59-1.44,1.58-8.33-.04-16.66-.03-25,0-1.08,0-1.56-.2-1.73-1.46-1.18-9.04-5.29-13.49-14.06-14.88-4.99-.79-9.98-.48-14.67,1.71-4.87,2.28-7.57,6.1-7.83,11.52-.25,5.31,2.57,8.76,6.99,11.14,5.66,3.05,12.02,3.75,18.11,5.34,7.47,1.95,15.16,3.1,22.35,6.04,9.59,3.92,16.87,10,18.97,20.75,3.61,18.48-4.23,34.42-21.54,41.79-18.26,7.78-37.01,8.16-55.19-.27-12.97-6.01-20.19-16.65-21.2-31.19-.14-1.96,.39-2.56,2.39-2.48,3.91,.16,7.83,.05,11.75,.05Z"/><path class="cls-5" d="M62.99,77.47c0,8.19,0,16.39,0,24.58-6.07,.02-12.15-.06-18.22,.08-7.64,.17-12.62,4.39-14.05,11.66-1.41,7.13,3.92,15,10.52,15.14,7.23,.16,14.47-.04,21.71-.08,.04,8.19,.08,16.37,.12,24.56-9.07,.02-18.16,.35-27.22-.06-5.76-.27-10.76-3.25-15.34-6.7-14.08-10.59-19.27-30.42-11.35-47.11,6.57-13.87,17.93-21.29,33.36-21.97,6.81-.3,13.65-.08,20.48-.1Z"/><path class="cls-3" d="M116.03,153.57c7.84,0,15.67,0,23.51,0,0,8.15-.28,16.32,.08,24.45,.33,7.38-2.3,13.59-6.63,19.11-10.23,13.03-23.79,17.05-39.75,13.88-15.97-3.17-27.45-17.4-29.22-33.29-.89-8.05-.22-16.1-.48-24.14,8.17,0,16.33-.01,24.5-.02,0,7.4,0,14.8,.03,22.2,0,2.01,.32,3.99,1.26,5.78,2.98,5.64,7.83,7.45,14.03,7.54,6.56,.1,13-5.89,12.76-12.83-.26-7.56-.08-15.13-.09-22.7Z"/><path class="cls-4" d="M708.47,119.84c.24,5.63-.6,11.12-2.63,16.38-5.06,13.14-16.77,20.57-31.4,19.98-17.49-.71-29.99-12.48-32.03-29.97-.76-6.54-.53-12.98,1.28-19.29,4.32-15.08,16.53-23.8,32.41-23.64,18.35,.18,30.63,12.52,32.35,31.56,.15,1.65,.02,3.33,.02,4.99Z"/><path class="cls-4" d="M979.1,130.91c.05,9.74-2.6,18.4-11.05,24.08-9.15,6.16-19.25,6.92-29.6,3.53-5.76-1.89-8.87-6.22-9.46-12.26-.62-6.39,1.67-11.41,7.21-14.78,4.66-2.83,9.92-3.83,15.21-4.37,8.44-.86,16.93-1.37,25.38-2.12,1.82-.16,2.61,.21,2.34,2.18-.17,1.23-.03,2.49-.03,3.74Z"/><path class="cls-4" d="M116.03,153.57c.01,7.57-.17,15.14,.09,22.7,.24,6.94-6.2,12.93-12.76,12.83-6.2-.09-11.05-1.9-14.03-7.54-.94-1.79-1.25-3.77-1.26-5.78-.02-7.4-.02-14.8-.03-22.2,9.33,0,18.66,0,27.98,0Z"/><path class="cls-4" d="M87.62,78.01c-.03-6.23-.39-12.49,0-18.7,.5-7.9,3.96-14.07,12.42-15.45,8.56-1.41,15.65,4.2,15.93,12.93,.23,7.06,0,14.13-.02,21.2-9.44,0-18.89,.02-28.33,.02Z"/><path class="cls-4" d="M140.04,101.59c7.48,.04,14.98-.54,22.45,.35,7.5,.9,12.25,7.43,11.65,15.96-.45,6.42-6.26,11.24-13.34,11.14-6.91-.1-13.82-.14-20.73-.2,0-9.08-.01-18.16-.02-27.25Z"/><path class="cls-4" d="M62.94,128.85c-7.24,.04-14.48,.24-21.71,.08-6.6-.14-11.92-8.01-10.52-15.14,1.43-7.26,6.41-11.48,14.05-11.66,6.07-.14,12.15-.06,18.22-.08-.02,8.93-.03,17.87-.05,26.8Z"/><path class="cls-4" d="M116.03,128.91c-8.98,.03-17.97,.04-26.95,.1-1.19,0-1.57-.37-1.56-1.56,.07-8.65,.08-17.29,.1-25.94,9.48,0,18.96,0,28.44,0l-.03-.03c0,9.14,0,18.29,0,27.43Z"/><path class="cls-3" d="M116.06,101.52c-9.48,0-18.96,0-28.44,0,0-7.84,0-15.67,0-23.51,9.44,0,18.89-.02,28.33-.02,.03,7.84,.07,15.69,.1,23.53Z"/><path class="cls-3" d="M116.03,128.91c0-9.14,0-18.29,0-27.43,8,.03,16.01,.07,24.01,.1,0,9.08,.01,18.16,.02,27.25-8.01,.32-16.02,.16-24.03,.08Z"/><path class="cls-4" d="M307.66,131.02c.03,9.75-2.67,18.38-11.15,24.03-9.09,6.07-19.11,6.82-29.38,3.51-5.76-1.86-8.95-6.13-9.57-12.18-.67-6.48,1.63-11.59,7.3-14.97,4.68-2.8,9.93-3.78,15.23-4.32,8.36-.85,16.76-1.35,25.13-2.1,1.88-.17,2.76,.2,2.47,2.28-.17,1.23-.03,2.49-.03,3.74Z"/><path class="cls-4" d="M528.77,107.95c-9.24,0-18.48-.04-27.72,.04-1.82,.02-2.23-.34-1.75-2.21,.83-3.22,1.71-6.41,3.15-9.42,5.12-10.73,14.18-15.18,25.53-15.69,9.61-.43,18.35,1.76,24.96,9.42,3.91,4.53,5.53,9.93,6.02,15.79,.13,1.58-.24,2.13-1.96,2.12-9.41-.09-18.81-.04-28.22-.04Z"/></g></svg>